<svg id="图层_1" data-name="图层 1" xmlns="http://www.w3.org/2000/svg" viewBox="0 0 612.24 485.95"><defs><style>.cls-1{fill:#0f9660;}.cls-2{fill:#080607;}.cls-3{fill:#acabab;}.cls-4{fill:#026933;}.cls-5{fill:#0d0b0c;}.cls-6{fill:#129560;}.cls-7{fill:#fdfefd;}.cls-8{fill:#9fcc94;}.cls-9{fill:#016832;}</style></defs><path class="cls-1" d="M337.65,196.42A13.78,13.78,0,0,1,346.4,193c4.63-.2,9.28-.32,13.9-.09a17,17,0,0,1,16.41,16.3c.25,4,.09,8,.08,12,0,9-.09,18.06-.1,27.1a20.68,20.68,0,0,1-1.09,7.77,4.4,4.4,0,0,0-.11,1.09,157.06,157.06,0,0,1,39.57,9.5c.29-.26.49-.36.51-.48a25.89,25.89,0,0,1,3.65-9c6.18-10.55,12.3-21.13,18.45-31.69a17.85,17.85,0,0,1,13.6-9.15,17.2,17.2,0,0,1,10.86,2.14c3.36,1.83,6.7,3.72,10,5.7A17.29,17.29,0,0,1,478.45,248q-9.92,17.39-20.14,34.58a53,53,0,0,1-4.73,5.91,149.14,149.14,0,0,1,26,25.84c9.12-5.84,18.49-10.83,27.64-16.18,3.58-2.1,7.18-4.17,10.79-6.24a17.82,17.82,0,0,1,24.77,6.42q2.79,4.62,5.46,9.3a17.51,17.51,0,0,1-6.48,24.31c-7.51,4.42-15.09,8.71-22.62,13.08-.74.44-1.4,1-2.1,1.54a2.49,2.49,0,0,1-.46.09l-47.74,0h-2.94V474.27c2.6.5,31.1.42,32.92-.1q.21-46.73.42-93.5c.5.17.61.37.67.58q5.25,20.28,10.48,40.56c1.14,4.4,2.19,8.81,3.27,13.22l-3.91-.59A151.72,151.72,0,0,1,500,467.39a67.65,67.65,0,0,1,7,3q17.12,9.67,34.1,19.56c9,5.21,11.72,15.68,6.59,24.68-1.65,2.92-3.43,5.77-5,8.72a18.21,18.21,0,0,1-25.6,6.89c-9.53-5.7-19.24-11.1-28.86-16.65-4-2.31-8.27-4.24-11.08-8.43a160.05,160.05,0,0,1-27,25.59c1,1.5,1.92,2.71,2.69,4,2,3.3,3.85,6.63,5.77,10,4.64,8,9.33,16,13.91,24.08,5.09,9,2.38,19.31-6.39,24.56-3.29,2-6.65,3.83-10,5.73a16.43,16.43,0,0,1-7.74,2.29,17.5,17.5,0,0,1-16.42-8.86c-2.14-3.47-4.15-7-6.12-10.59-5.42-9.83-11.77-19.15-16.43-29.64A155.26,155.26,0,0,1,375.78,560a43.7,43.7,0,0,1,.65,5.17c0,13.51.09,27-.1,40.53-.13,8.82-5.62,15.31-14.11,17.34a1.82,1.82,0,0,0-.56.37H343a15,15,0,0,0-1.8-1,17.65,17.65,0,0,1-11.65-16.82c0-13.27,0-26.54.1-39.81a55.78,55.78,0,0,1,1-7.37,163,163,0,0,1-27-7.72c-2.75,8.06-7.71,14.61-11.62,21.72-3.39,6.16-7.17,12.11-10.55,18.27a18,18,0,0,1-25.41,6.75c-2.72-1.69-5.54-3.19-8.29-4.83-7.59-4.52-10.63-11.21-9.05-19.87.06-.31.1-.63.16-.94a10.39,10.39,0,0,1,.92-.72A70.27,70.27,0,0,0,260.1,553.8a73.87,73.87,0,0,0,13.7-28.71c1.4-5.78,2.47-11.66,3.42-17.54.83-5.16,1.48-10.38,1.84-15.6.4-5.8.43-11.63.53-17.45.08-4.64,0-9.27,0-13.91,0-2.22-.24-4.44-.36-6.66.63,1,1.26,2,1.87,3a82.1,82.1,0,0,0,14.06,17.83c21.75,20.48,47.45,28.77,77.05,24.41a85,85,0,0,0,45.52-21.45c22.92-20.77,32.93-46.79,29.84-77.6a83.41,83.41,0,0,0-20.62-47.38c-19.73-22.59-44.84-32.89-74.77-31.18a85.72,85.72,0,0,0-38.79,11.94c-3.16,1.85-6.2,3.91-9.29,5.87a11.63,11.63,0,0,1,.67-2.24c3.6-6.67,7.42-13.23,10.84-20,4.51-8.9,8.88-17.89,13-27,2.93-6.46,5.53-13.08,7.93-19.75A133.25,133.25,0,0,0,342.87,246a140,140,0,0,0,1.45-14.45c.17-3.49-.24-7-.39-10.5a61.81,61.81,0,0,0-4.61-19.91C338.72,199.57,338.2,198,337.65,196.42Z" transform="translate(0.12 -137.46)"/><path class="cls-2" d="M612.12,474.68c-.87-.06-1.74-.17-2.61-.17H579.43v-98A37.5,37.5,0,0,0,577,384.2c-.7,2.7-1.42,5.4-2.12,8.11s-1.36,5.41-2,8.12c-1.62,6.29-3.26,12.58-4.86,18.88-1.15,4.52-2.24,9.07-3.36,13.6-1.29,4.85-2.59,9.7-3.85,14.55-2.25,8.65-4.46,17.3-6.7,26-.07.3-.19.59-.32,1H524c-1.32-5.06-2.64-10.07-3.93-15.08-2-7.65-3.9-15.3-5.87-22.94a10,10,0,0,0-.52-1.34c-1.08-4.41-2.13-8.82-3.27-13.22q-5.21-20.3-10.48-40.56c-.06-.21-.17-.41-.67-.58q-.21,46.75-.42,93.5c-1.82.52-30.32.6-32.92.1V346.56h2.94l47.74,0a2.49,2.49,0,0,0,.46-.09l2.06.12c.94,3.71,1.88,7.39,2.79,11.08q3.68,15,7.34,29.9c.08.31.24.59.35.89a13.29,13.29,0,0,0,.2,1.41q3.59,14.64,7.21,29.26c.45,1.79.95,3.56,1.56,5.84a14.1,14.1,0,0,0,.62-1.36q3.11-11.67,6.18-23.35c1-3.93,2-7.88,3-11.81,1.29-4.69,2.6-9.37,3.85-14.07,2.45-9.17,4.87-18.35,7.32-27.64a7.64,7.64,0,0,1,1.34-.22l51.3,0Z" transform="translate(0.12 -137.46)"/><path class="cls-3" d="M.58,371.05h-.7v-2.87l.86-.05Z" transform="translate(0.12 -137.46)"/><path class="cls-4" d="M279.22,453.93c.12,2.22.33,4.44.36,6.66.05,4.64.09,9.27,0,13.91-.1,5.82-.13,11.65-.53,17.45-.36,5.22-1,10.44-1.84,15.6-1,5.88-2,11.76-3.42,17.54a73.87,73.87,0,0,1-13.7,28.71,70.27,70.27,0,0,1-20.26,17.29,10.39,10.39,0,0,0-.92.72c-2.23,1.08-4.43,2.2-6.68,3.24a109.65,109.65,0,0,1-28.86,8.51,164.23,164.23,0,0,1-33,1.83c-13.74-.54-27.16-2.82-39.9-8.28-14.84-6.35-26.43-16.53-35.47-29.81-7-10.32-11.33-21.79-14.5-33.74-4.28-16-6.33-32.43-7.24-49a344,344,0,0,1,1.09-49.83,435.71,435.71,0,0,1,9-57.26,875.18,875.18,0,0,1,25.92-92,552.08,552.08,0,0,1,31.3-73c4.36-8.5,8.92-16.78,15.07-24.11,8-9.53,17.17-17.61,28.24-23.43,11.44-6,23.62-8.14,36.42-7.29,20.08,1.35,39.09,6.94,57.63,14.44A194.4,194.4,0,0,1,306,165.57a99.88,99.88,0,0,1,21,16.27,59.83,59.83,0,0,1,9.33,12.73,15.41,15.41,0,0,0,1.39,1.85c.55,1.57,1.07,3.15,1.67,4.7A61.81,61.81,0,0,1,343.93,221c.15,3.5.56,7,.39,10.5A140,140,0,0,1,342.87,246a133.25,133.25,0,0,1-6.34,24.48c-2.4,6.67-5,13.29-7.93,19.75-4.12,9.08-8.49,18.07-13,27-3.42,6.76-7.24,13.32-10.84,20a11.63,11.63,0,0,0-.67,2.24h0l-.52.45a14.1,14.1,0,0,0-1.28,1.71c-4.65,8.38-9.32,16.74-13.88,25.17a65,65,0,0,0-5.48,13.51c-2.81,10-3.76,20.25-4.26,30.55C278,425.18,278.55,439.56,279.22,453.93ZM92.6,447c.42,8.54.75,17.08,1.28,25.61a204.35,204.35,0,0,0,4.4,31.52c2.42,10.9,5.78,21.4,12.26,30.73,8.1,11.68,18.41,20.5,31.7,25.76,10,4,20.47,5.61,31.13,6.06a124.58,124.58,0,0,0,30.28-2.3c10.61-2.17,20.58-5.92,29.33-12.44,9.58-7.14,16.86-16,20.71-27.54a129.54,129.54,0,0,0,5.23-23.58,266.14,266.14,0,0,0,2.34-36.56c0-10.87-.48-21.73-.73-32.6-.32-13.43-.24-26.84,1.73-40.18a113.32,113.32,0,0,1,6.06-24.35c3.12-8.09,7.51-15.53,11.75-23.05,8.86-15.73,17.73-31.47,25.3-47.88,6-12.93,11.38-26.07,14.85-39.92,2.78-11.07,4.35-22.24,2.64-33.68a47.62,47.62,0,0,0-13.25-27.09,81.91,81.91,0,0,0-21.08-15.27c-15.82-8.16-32.27-14.7-49.69-18.59A100.57,100.57,0,0,0,211,159a51.16,51.16,0,0,0-22.15,6.38c-8.78,4.89-15.52,12-21.29,20-5,7.05-9,14.71-13.09,22.32-9.9,18.51-17.68,37.92-24.6,57.7-7.65,21.87-14.15,44.09-20.23,66.45-7,25.86-12.47,52-14.94,78.72C93.6,422.71,92.85,434.82,92.6,447Z" transform="translate(0.12 -137.46)"/><path class="cls-2" d="M48.73,474.78H7.4V404.91H48.73Z" transform="translate(0.12 -137.46)"/><path class="cls-5" d="M.58,371.05l.16-2.92a2.64,2.64,0,0,1,2.64-1.27c1.59,0,3.19,0,5,0l1.21-4.25c-1.61-1-3.25-1.93-4.83-3-1.77-1.17-1.94-2.21-.78-4s2-2,3.77-1c1.59.89,3.15,1.86,4.71,2.79l3.1-3.28c-.69-1.28-1.51-2.73-2.26-4.21-1-2-.61-3,1.37-4.08s2.76-.74,3.91,1.2c.82,1.36,1.58,2.76,2.44,4.26l3.74-1.05c0-2-.08-3.95,0-5.86s1.07-2.7,3.44-2.61c1.93.08,2.76.88,2.74,2.82,0,1.75-.16,3.49-.25,5.38l5.06,1.35c.93-1.46,1.89-3,2.87-4.52,1.53-2.36,3.58-2.58,5.54-.59a2.17,2.17,0,0,1,.24,3c-1,1.72-2.11,3.38-3.12,5l3.39,3.31c1.38-.71,3-1.58,4.63-2.38a3.28,3.28,0,0,1,4.8,3.08,2.46,2.46,0,0,1-1.57,2.22l-5.12,2.7,1,4.49c1.75,0,3.56.05,5.37.14,2.43.12,3.28,1.13,3.07,3.53-.16,1.77-1,2.58-2.75,2.62-2,.05-4,0-6.12,0l-1.43,3.88,4.11,2.42c2.55,1.51,2.95,2.42,1.86,4.28-1.32,2.27-2.54,2.49-5.16.92l-4.23-2.58-3.59,2.87c.79,1.42,1.56,2.8,2.31,4.19,1.1,2,.9,3.08-.77,4-2.09,1.18-3.47.86-4.62-1.11-.88-1.5-1.7-3-2.53-4.56l-4.43.78c0,1.6.05,3.18,0,4.76-.08,2.21-.91,3-2.86,2.95-2.41-.08-3.25-.87-3.28-3.13,0-.87,0-1.75.05-2.63s0-1.58,0-2.52l-3-1.1c-.92,1.41-1.8,2.8-2.72,4.17-1.25,1.85-2.16,2.05-4,.92s-2.17-2.17-1-4.16c.4-.68.85-1.35,1.26-2s.74-1.23,1.18-2l-3-3.22c-1.54.8-3.06,1.62-4.61,2.38-1.89.91-2.82.55-3.86-1.4-.95-1.78-.71-2.68,1.1-3.73,1.44-.84,2.93-1.59,4.51-2.44l-.8-3c-2-.1-3.79-.23-5.61-.27A2.38,2.38,0,0,1,.58,371.05ZM28.07,358.5a11.38,11.38,0,1,0-.16,22.74,11.38,11.38,0,1,0,.16-22.74Z" transform="translate(0.12 -137.46)"/><path class="cls-6" d="M548.31,388.49c-1,3.93-1.95,7.88-3,11.81q-3.06,11.68-6.18,23.35a14.1,14.1,0,0,1-.62,1.36c-.61-2.28-1.11-4.05-1.56-5.84q-3.62-14.62-7.21-29.26a13.29,13.29,0,0,1-.2-1.41Z" transform="translate(0.12 -137.46)"/><path class="cls-7" d="M279.22,453.93c-.67-14.37-1.24-28.75-.54-43.14.5-10.3,1.45-20.55,4.26-30.55a65,65,0,0,1,5.48-13.51c4.56-8.43,9.23-16.79,13.88-25.17a14.1,14.1,0,0,1,1.28-1.71l.52-.45h0c3.09-2,6.13-4,9.29-5.87a85.72,85.72,0,0,1,38.79-11.94c29.93-1.71,55,8.59,74.77,31.18a83.41,83.41,0,0,1,20.62,47.38c3.09,30.81-6.92,56.83-29.84,77.6a85,85,0,0,1-45.52,21.45c-29.6,4.36-55.3-3.93-77.05-24.41A82.1,82.1,0,0,1,281.09,457C280.48,456,279.85,455,279.22,453.93Zm69.54-33.08h61.61V394.47H348.76V374.16h67V346.71H308.06V474.39H416.91v-28.3l-68.15-.94Z" transform="translate(0.12 -137.46)"/><path class="cls-6" d="M564.61,432.91c1.12-4.53,2.21-9.08,3.36-13.6,1.6-6.3,3.24-12.59,4.86-18.88a29.82,29.82,0,0,1,.95,4.88c.14,4.3.22,8.62,0,12.92A16.72,16.72,0,0,1,564.61,432.91Z" transform="translate(0.12 -137.46)"/><path class="cls-8" d="M92.6,447c.25-12.17,1-24.28,2.12-36.38,2.47-26.73,7.91-52.86,14.94-78.72,6.08-22.36,12.58-44.58,20.23-66.45,6.92-19.78,14.7-39.19,24.6-57.7,4.07-7.61,8.06-15.27,13.09-22.32,5.77-8.09,12.51-15.16,21.29-20A51.16,51.16,0,0,1,211,159a100.57,100.57,0,0,1,27.82,2.65c17.42,3.89,33.87,10.43,49.69,18.59a81.91,81.91,0,0,1,21.08,15.27,47.62,47.62,0,0,1,13.25,27.09c1.71,11.44.14,22.61-2.64,33.68-3.47,13.85-8.88,27-14.85,39.92-7.57,16.41-16.44,32.15-25.3,47.88-4.24,7.52-8.63,15-11.75,23.05a113.32,113.32,0,0,0-6.06,24.35c-2,13.34-2.05,26.75-1.73,40.18.25,10.87.72,21.73.73,32.6a266.14,266.14,0,0,1-2.34,36.56,129.54,129.54,0,0,1-5.23,23.58c-3.85,11.49-11.13,20.4-20.71,27.54-8.75,6.52-18.72,10.27-29.33,12.44a124.58,124.58,0,0,1-30.28,2.3c-10.66-.45-21.13-2.09-31.13-6.06-13.29-5.26-23.6-14.08-31.7-25.76-6.48-9.33-9.84-19.83-12.26-30.73a204.35,204.35,0,0,1-4.4-31.52C93.35,464.07,93,455.53,92.6,447Zm148.65-66.45a9.75,9.75,0,0,0,0-1,5.78,5.78,0,0,0-.18-.94c-4.76-15.49-14.19-26.56-30.17-31-19.75-5.5-39.56-5.77-59.36.06-13.82,4.07-24.32,12.23-30.89,25.1a87.29,87.29,0,0,0-9.56,44.71,68.48,68.48,0,0,0,7.24,27.6c6.33,12.65,15.87,21.62,29.37,26.33a98,98,0,0,0,28.9,5.17,150,150,0,0,0,22-1.05A55.66,55.66,0,0,0,211.52,473a137.5,137.5,0,0,0,30.2-15.5,3.38,3.38,0,0,0,1.54-3.2q-.06-25.07,0-50.13c0-.68-.1-1.37-.16-2.15H181.31c0,8.79,0,17.44,0,26.29h26.76c.06.88.14,1.5.14,2.12,0,2.4-.13,4.8,0,7.19a3.49,3.49,0,0,1-1.85,3.51,43,43,0,0,1-29,6.79c-14.15-1.73-23.91-11.56-25.48-25.73a83.39,83.39,0,0,1,.67-22.7,44.19,44.19,0,0,1,5.26-15.82,15.56,15.56,0,0,1,6-6.1c6.72-3.53,13.85-5.46,21.48-4.58,9,1,15.14,5.9,18.07,14.59a2.37,2.37,0,0,0,.45.57Zm-40-134.94c-2.47.27-4.69.49-6.9.75s-4.44.54-6.64.91a4.71,4.71,0,0,0-4.17,5,23,23,0,0,0,.48,4,4.72,4.72,0,0,0,5.13,4c1.36,0,2.71-.19,4.06-.35,3.23-.38,6.46-.79,9.66-1.18l3.89,9.28-.88.65c-3.14,2.34-6.32,4.62-9.41,7-2.53,2-2.86,4.54-1.08,7.18a29.46,29.46,0,0,0,2,2.68,5.13,5.13,0,0,0,6.7,1.17,20.32,20.32,0,0,0,2-1.39l9-6.8,6,4.69c-1.72,4-3.4,7.89-5,11.79-1.41,3.41-.4,5.91,2.93,7.41l1.31.58c4.18,1.84,6.61.93,8.43-3.23,1.56-3.57,3.05-7.18,4.59-10.8l9.54,1.67c.57,4.36,1.07,8.56,1.68,12.75a5.15,5.15,0,0,0,6,4.54c.64-.07,1.27-.19,1.9-.25,4.15-.39,6-2.6,5.46-6.75-.22-1.74-.54-3.47-.75-5.21-.26-2.11-.45-4.23-.67-6.28L266,286c2.7,3.56,5.27,7,7.91,10.41,1.87,2.4,4.13,3.05,6.52,2,3.76-1.61,5.89-4.42,5.45-7.32a7.25,7.25,0,0,0-.86-2.2,13.34,13.34,0,0,0-1.27-1.74l-6.86-9,6-7.33c3.9,1.65,7.71,3.3,11.54,4.88,3.51,1.43,6.12.34,7.58-3.09.38-.88.75-1.76,1.07-2.66a4.65,4.65,0,0,0-1.49-5.4,8.37,8.37,0,0,0-2.27-1.3c-3.65-1.57-7.32-3.1-10.91-4.61l1.56-10,12.31-1.52c3.47-.42,5.43-2.93,4.94-6.34-.09-.63-.22-1.26-.31-1.89-.54-3.79-2.87-5.56-6.7-5.06-1.66.22-3.32.49-5,.69-2.28.27-4.57.49-6.8.73-1.37-3.29-2.64-6.37-4-9.55l.7-.53c3.35-2.45,6.71-4.89,10-7.36a4.55,4.55,0,0,0,2-4.82,9.86,9.86,0,0,0-4.94-6.46c-1.94-1.07-3.87-.49-5.59.81-3.44,2.61-6.88,5.2-10.36,7.83l-9.08-6.7c1.71-4,3.49-8,5.12-12.09,1.19-3,.15-5.4-2.67-6.77-.79-.39-1.61-.71-2.43-1-3.6-1.35-6-.39-7.56,3.16-1.75,4-3.38,8.05-5.08,12.12l-8.46-1c-.07-.59-.11-1-.18-1.52-.47-3.64-.88-7.29-1.48-10.91a6.06,6.06,0,0,0-1.4-2.94c-2.45-2.66-9.2-1.94-11.17,1.1a6.34,6.34,0,0,0-.67,4.62c.55,3.85,1,7.7,1.52,11.41l-9.39,4c-2.89-3.77-5.63-7.5-8.55-11.08-2-2.44-4.66-2.65-7.25-.87a27.59,27.59,0,0,0-2.29,1.74c-2.52,2.1-2.91,4.79-.94,7.4,2.79,3.68,5.67,7.3,8.56,11l-6.35,8.72-7-3c-1.69-.71-3.36-1.49-5.09-2.11a5.1,5.1,0,0,0-6.78,2.78,24.59,24.59,0,0,0-1.33,3.33,4.8,4.8,0,0,0,2.36,5.9,22.87,22.87,0,0,0,2.62,1.19q5.37,2.22,10.75,4.41Zm-56.9,68.26-4.7,4.45a2.78,2.78,0,0,0-1,2.76,3.79,3.79,0,0,0,6.41,2.09c1.54-1.36,3.06-2.73,4.61-4.11l3.29,2.16c-.67,2.21-1.3,4.18-1.85,6.18a3,3,0,0,0,.51,3.15,3.81,3.81,0,0,0,6.58-1.49c.57-1.81,1.11-3.63,1.69-5.55l5.16.57c.53,2.13,1,4.14,1.54,6.14a2.9,2.9,0,0,0,2.13,2.36c3.14.84,5.43-1.3,4.81-4.48-.09-.47-.27-.92-.36-1.39-.28-1.38-.53-2.77-.8-4.17l4.74-2.35,4.63,4.9a2.87,2.87,0,0,0,3,1.16,5.09,5.09,0,0,0,3.42-3.11c.57-1.46-.44-2.4-1.32-3.34-1.37-1.43-2.76-2.86-4.19-4.34l2.81-4.23c2.24.66,4.39,1.24,6.51,1.93a2.66,2.66,0,0,0,3.38-1c.81-1.34,1.64-2.84.72-4.48a3.43,3.43,0,0,0-1.41-1.22,13.48,13.48,0,0,0-2-.65l-4.74-1.53c.1-2,.18-3.69.26-5.37,2.41-.56,4.59-1,6.75-1.59a2.78,2.78,0,0,0,2.27-2.74c.09-1.87-.79-3.85-2.09-4.26a5,5,0,0,0-2.32,0c-2.09.39-4.16.88-6.25,1.33L184,286.77c1.81-1.72,3.55-3.26,5.13-4.94a3.88,3.88,0,0,0,1.13-2.49,4.43,4.43,0,0,0-2.87-3.57c-1.37-.64-2.6-.09-3.67,1-1.55,1.58-3.2,3.08-4.83,4.65l-5.37-3.21c.72-2.33,1.37-4.46,2-6.6a2.86,2.86,0,0,0-.55-3.12,5,5,0,0,0-4.41-1.36c-1.44.23-2,1.43-2.34,2.74-.61,2.21-1.31,4.39-2,6.52h-4.58c-.53-2.14-1-4.23-1.56-6.3-.44-1.67-1.34-2.51-2.72-2.63-3.36-.3-5.15,1.71-4.39,5,.45,1.92,1,3.83,1.43,5.77l-4.8,2.67c-1.82-1.89-3.49-3.61-5.14-5.34a2.81,2.81,0,0,0-3.28-.75c-3.09,1.26-3.69,4-1.41,6.48,1.51,1.62,3.07,3.2,4.63,4.83L141.65,291c-.61-.13-1.15-.22-1.67-.37l-4.82-1.43a2.75,2.75,0,0,0-2.92.49,4.84,4.84,0,0,0-1.32,4.19c.17,1.45,1.3,2,2.64,2.41,2.14.58,4.24,1.29,6.33,1.94v3.92c-2.28.57-4.43,1.13-6.6,1.63a2.79,2.79,0,0,0-2.22,1.95,3.81,3.81,0,0,0,4.53,4.87c2.08-.44,4.16-.92,6.21-1.37Z" transform="translate(0.12 -137.46)"/><path class="cls-1" d="M304.1,339.4l-.52.45Z" transform="translate(0.12 -137.46)"/><path class="cls-7" d="M28.07,358.5a11.38,11.38,0,1,1-.16,22.74,11.38,11.38,0,1,1,.16-22.74Z" transform="translate(0.12 -137.46)"/><path class="cls-2" d="M348.76,420.85v24.3l68.15.94v28.3H308.06V346.71h107.7v27.45h-67v20.31h61.61v26.38Z" transform="translate(0.12 -137.46)"/><path class="cls-2" d="M241.25,380.54l-37.45,7.6a2.37,2.37,0,0,1-.45-.57c-2.93-8.69-9-13.54-18.07-14.59-7.63-.88-14.76,1-21.48,4.58a15.56,15.56,0,0,0-6,6.1,44.19,44.19,0,0,0-5.26,15.82,83.39,83.39,0,0,0-.67,22.7c1.57,14.17,11.33,24,25.48,25.73a43,43,0,0,0,29-6.79,3.49,3.49,0,0,0,1.85-3.51c-.13-2.39,0-4.79,0-7.19,0-.62-.08-1.24-.14-2.12H181.35c-.08-8.85,0-17.5,0-26.29h61.74c.06.78.16,1.47.16,2.15q0,25.07,0,50.13a3.38,3.38,0,0,1-1.54,3.2,137.5,137.5,0,0,1-30.2,15.5,55.66,55.66,0,0,1-12.91,2.51,150,150,0,0,1-22,1.05,98,98,0,0,1-28.9-5.17c-13.5-4.71-23-13.68-29.37-26.33a68.48,68.48,0,0,1-7.24-27.6,87.29,87.29,0,0,1,9.56-44.71c6.57-12.87,17.07-21,30.89-25.1,19.8-5.83,39.61-5.56,59.36-.06,16,4.45,25.41,15.52,30.17,31a5.78,5.78,0,0,1,.18.94A9.75,9.75,0,0,1,241.25,380.54Z" transform="translate(0.12 -137.46)"/><path class="cls-9" d="M201.29,245.6l.88-7.43q-5.37-2.19-10.75-4.41a22.87,22.87,0,0,1-2.62-1.19,4.8,4.8,0,0,1-2.36-5.9,24.59,24.59,0,0,1,1.33-3.33,5.1,5.1,0,0,1,6.78-2.78c1.73.62,3.4,1.4,5.09,2.11l7,3,6.35-8.72c-2.89-3.7-5.77-7.32-8.56-11-2-2.61-1.58-5.3.94-7.4a27.59,27.59,0,0,1,2.29-1.74c2.59-1.78,5.27-1.57,7.25.87,2.92,3.58,5.66,7.31,8.55,11.08l9.39-4c-.49-3.71-1-7.56-1.52-11.41a6.34,6.34,0,0,1,.67-4.62c2-3,8.72-3.76,11.17-1.1a6.06,6.06,0,0,1,1.4,2.94c.6,3.62,1,7.27,1.48,10.91.07.47.11.93.18,1.52l8.46,1c1.7-4.07,3.33-8.12,5.08-12.12,1.55-3.55,4-4.51,7.56-3.16.82.31,1.64.63,2.43,1,2.82,1.37,3.86,3.82,2.67,6.77-1.63,4.07-3.41,8.08-5.12,12.09l9.08,6.7c3.48-2.63,6.92-5.22,10.36-7.83,1.72-1.3,3.65-1.88,5.59-.81a9.86,9.86,0,0,1,4.94,6.46,4.55,4.55,0,0,1-2,4.82c-3.33,2.47-6.69,4.91-10,7.36l-.7.53c1.32,3.18,2.59,6.26,4,9.55,2.23-.24,4.52-.46,6.8-.73,1.66-.2,3.32-.47,5-.69,3.83-.5,6.16,1.27,6.7,5.06.09.63.22,1.26.31,1.89.49,3.41-1.47,5.92-4.94,6.34L290,248.78l-1.56,10c3.59,1.51,7.26,3,10.91,4.61a8.37,8.37,0,0,1,2.27,1.3,4.65,4.65,0,0,1,1.49,5.4c-.32.9-.69,1.78-1.07,2.66-1.46,3.43-4.07,4.52-7.58,3.09-3.83-1.58-7.64-3.23-11.54-4.88l-6,7.33,6.86,9a13.34,13.34,0,0,1,1.27,1.74,7.25,7.25,0,0,1,.86,2.2c.44,2.9-1.69,5.71-5.45,7.32-2.39,1-4.65.38-6.52-2-2.64-3.4-5.21-6.85-7.91-10.41l-9.51,3.5c.22,2,.41,4.17.67,6.28.21,1.74.53,3.47.75,5.21.5,4.15-1.31,6.36-5.46,6.75-.63.06-1.26.18-1.9.25a5.15,5.15,0,0,1-6-4.54c-.61-4.19-1.11-8.39-1.68-12.75l-9.54-1.67c-1.54,3.62-3,7.23-4.59,10.8-1.82,4.16-4.25,5.07-8.43,3.23l-1.31-.58c-3.33-1.5-4.34-4-2.93-7.41,1.62-3.9,3.3-7.77,5-11.79l-6-4.69-9,6.8a20.32,20.32,0,0,1-2,1.39,5.13,5.13,0,0,1-6.7-1.17,29.46,29.46,0,0,1-2-2.68c-1.78-2.64-1.45-5.21,1.08-7.18,3.09-2.41,6.27-4.69,9.41-7l.88-.65-3.89-9.28c-3.2.39-6.43.8-9.66,1.18-1.35.16-2.7.32-4.06.35a4.72,4.72,0,0,1-5.13-4,23,23,0,0,1-.48-4,4.71,4.71,0,0,1,4.17-5c2.2-.37,4.42-.64,6.64-.91S198.82,245.87,201.29,245.6ZM271,247.74c.9-14-12.18-26-25.64-26-14.61,0-26.15,11.58-26.18,25.48A26,26,0,0,0,245,273.17C259.39,273.36,271.58,261.49,271,247.74Z" transform="translate(0.12 -137.46)"/><path class="cls-4" d="M144.39,313.86l-2.58-4.62c-2.05.45-4.13.93-6.21,1.37a3.81,3.81,0,0,1-4.53-4.87,2.79,2.79,0,0,1,2.22-1.95c2.17-.5,4.32-1.06,6.6-1.63v-3.92c-2.09-.65-4.19-1.36-6.33-1.94-1.34-.37-2.47-1-2.64-2.41a4.84,4.84,0,0,1,1.32-4.19,2.75,2.75,0,0,1,2.92-.49l4.82,1.43c.52.15,1.06.24,1.67.37l2.79-4.91c-1.56-1.63-3.12-3.21-4.63-4.83-2.28-2.45-1.68-5.22,1.41-6.48a2.81,2.81,0,0,1,3.28.75c1.65,1.73,3.32,3.45,5.14,5.34l4.8-2.67c-.48-1.94-1-3.85-1.43-5.77-.76-3.28,1-5.29,4.39-5,1.38.12,2.28,1,2.72,2.63.54,2.07,1,4.16,1.56,6.3h4.58c.65-2.13,1.35-4.31,2-6.52.36-1.31.9-2.51,2.34-2.74a5,5,0,0,1,4.41,1.36,2.86,2.86,0,0,1,.55,3.12c-.66,2.14-1.31,4.27-2,6.6l5.37,3.21c1.63-1.57,3.28-3.07,4.83-4.65,1.07-1.08,2.3-1.63,3.67-1a4.43,4.43,0,0,1,2.87,3.57,3.88,3.88,0,0,1-1.13,2.49c-1.58,1.68-3.32,3.22-5.13,4.94l2.49,4.83c2.09-.45,4.16-.94,6.25-1.33a5,5,0,0,1,2.32,0c1.3.41,2.18,2.39,2.09,4.26a2.78,2.78,0,0,1-2.27,2.74c-2.16.56-4.34,1-6.75,1.59-.08,1.68-.16,3.41-.26,5.37l4.74,1.53a13.48,13.48,0,0,1,2,.65,3.43,3.43,0,0,1,1.41,1.22c.92,1.64.09,3.14-.72,4.48a2.66,2.66,0,0,1-3.38,1c-2.12-.69-4.27-1.27-6.51-1.93l-2.81,4.23c1.43,1.48,2.82,2.91,4.19,4.34.88.94,1.89,1.88,1.32,3.34a5.09,5.09,0,0,1-3.42,3.11,2.87,2.87,0,0,1-3-1.16l-4.63-4.9-4.74,2.35c.27,1.4.52,2.79.8,4.17.09.47.27.92.36,1.39.62,3.18-1.67,5.32-4.81,4.48a2.9,2.9,0,0,1-2.13-2.36c-.49-2-1-4-1.54-6.14l-5.16-.57c-.58,1.92-1.12,3.74-1.69,5.55a3.81,3.81,0,0,1-6.58,1.49,3,3,0,0,1-.51-3.15c.55-2,1.18-4,1.85-6.18l-3.29-2.16c-1.55,1.38-3.07,2.75-4.61,4.11a3.79,3.79,0,0,1-6.41-2.09,2.78,2.78,0,0,1,1-2.76Zm19.14.59a13.59,13.59,0,0,0,14.29-13.56,13.75,13.75,0,0,0-14.07-14.17c-7.79,0-13.84,5.48-14.11,13.9C149.4,308,156.37,314.74,163.53,314.45Z" transform="translate(0.12 -137.46)"/><path class="cls-1" d="M271,247.74c.58,13.75-11.61,25.62-26,25.43a26,26,0,0,1-25.81-25.92c0-13.9,11.57-25.48,26.18-25.48C258.82,221.77,271.9,233.79,271,247.74Z" transform="translate(0.12 -137.46)"/><path class="cls-1" d="M163.53,314.45c-7.16.29-14.13-6.41-13.89-13.83.27-8.42,6.32-13.9,14.11-13.9a13.75,13.75,0,0,1,14.07,14.17A13.59,13.59,0,0,1,163.53,314.45Z" transform="translate(0.12 -137.46)"/></svg>